<svg class="scroll-nav-logo" xmlns="http://www.w3.org/2000/svg" width="64" height="64" viewBox="0 0 64 64" fill="none">
<path fill="#222222" d="M42.2836 15.3164H39.6579C39.0562 15.3164 38.6186 15.8087 38.6186 16.3557V30.0856C38.6186 31.0703 37.3058 31.5079 36.7588 30.6874L25.7092 15.6993C25.4904 15.4258 25.2169 15.2617 24.8887 15.2617H21.7708C21.1691 15.2617 20.7314 15.754 20.7314 16.301V40.1506C20.7314 40.7523 21.2238 41.1899 21.7708 41.1899H24.3964C24.9981 41.1899 25.4357 40.6976 25.4357 40.1506V26.4207C25.4357 25.4361 26.7485 24.9985 27.2955 25.819L38.2904 40.807C38.5092 41.0805 38.7827 41.2446 39.1109 41.2446H42.2289C42.8306 41.2446 43.2682 40.7523 43.2682 40.2053V16.3557C43.3229 15.754 42.8306 15.3164 42.2836 15.3164Z" />
<path fill="#222222" d="M42.2836 44.0889H21.7708C21.1691 44.0889 20.7314 44.5812 20.7314 45.1282V47.6991C20.7314 48.3008 21.2238 48.7384 21.7708 48.7384H42.2836C42.8853 48.7384 43.3229 48.2461 43.3229 47.6991V45.1282C43.3229 44.5265 42.8306 44.0889 42.2836 44.0889Z" />
<path fill="#222222" d="M32 0C14.3863 0 0 14.3863 0 32C0 49.6137 14.3863 64 32 64C49.6137 64 64 49.6684 64 32C64 14.3316 49.6684 0 32 0ZM32 59.3504C16.9026 59.3504 4.64957 47.0974 4.64957 32C4.64957 16.9026 16.9026 4.64957 32 4.64957C47.0974 4.64957 59.3504 16.9026 59.3504 32C59.3504 47.0974 47.0974 59.3504 32 59.3504Z" />
</svg>