<?xml version="1.0" encoding="UTF-8"?>
<svg class="scroll-nav-logo" viewBox="0 0 64 64" xmlns="http://www.w3.org/2000/svg">
<path d="m42.284 15.316h-2.6257c-0.6017 0-1.0393 0.4923-1.0393 1.0393v13.73c0 0.9847-1.3128 1.4223-1.8598 0.6018l-11.05-14.988c-0.2188-0.2735-0.4923-0.4376-0.8205-0.4376h-3.1179c-0.6017 0-1.0394 0.4923-1.0394 1.0393v23.85c0 0.6017 0.4924 1.0393 1.0394 1.0393h2.6256c0.6017 0 1.0393-0.4923 1.0393-1.0393v-13.73c0-0.9846 1.3128-1.4222 1.8598-0.6017l10.995 14.988c0.2188 0.2735 0.4923 0.4376 0.8205 0.4376h3.118c0.6017 0 1.0393-0.4923 1.0393-1.0393v-23.85c0.0547-0.6017-0.4376-1.0393-0.9846-1.0393z" fill="#509ac2"/>
<path d="m42.284 44.089h-20.513c-0.6017 0-1.0394 0.4923-1.0394 1.0393v2.5709c0 0.6017 0.4924 1.0393 1.0394 1.0393h20.513c0.6017 0 1.0393-0.4923 1.0393-1.0393v-2.5709c0-0.6017-0.4923-1.0393-1.0393-1.0393z" fill="#509ac2"/>
<path d="m32 0c-17.614 0-32 14.386-32 32s14.386 32 32 32 32-14.332 32-32-14.332-32-32-32zm0 59.35c-15.097 0-27.35-12.253-27.35-27.35s12.253-27.35 27.35-27.35 27.35 12.253 27.35 27.35-12.253 27.35-27.35 27.35z" fill="#509ac2"/>
</svg>
