<svg class="main-nav-logo" xmlns="http://www.w3.org/2000/svg" height="64" viewBox="0 0 294.5 134.3" fill="none">
<path fill="#222222" d="M11,100h9.4c2.1,0,3.7-1.6,3.7-3.7V47.1c0-3.6,4.6-5.1,6.8-2.3l39.3,53.6c0.7,0.9,1.9,1.5,3,1.5h11.3 c2.1,0,3.7-1.6,3.7-3.7V11c0-2.1-1.6-3.7-3.7-3.7H75c-2.1,0-3.7,1.6-3.7,3.7v49.1c0,3.6-4.6,5.1-6.8,2.3L25.2,8.8 c-0.6-0.9-1.7-1.5-3-1.5H11c-2.1,0-3.7,1.6-3.7,3.7v85.2C7.3,98.2,8.9,100,11,100z"/>
<path fill="#222222" d="M107.9,93.8c3.8,3.3,8.3,5.3,13.3,6.2c2.3,0.4,4.3-1.4,4.3-3.7v-9.6c0-1.6-1.1-3.2-2.8-3.6 c-4.4-1.2-7.6-5.2-7.6-10V44.9c0-2.1,1.6-3.7,3.7-3.7h13.1c2.1,0,3.7-1.6,3.7-3.7v-9.4c0-2.1-1.6-3.7-3.7-3.7h-13.1 c-2.1,0-3.7-1.6-3.7-3.7V11c0-2.1-1.6-3.7-3.7-3.7H102c-2.1,0-3.7,1.6-3.7,3.6v61.8C98.4,81,101.9,88.6,107.9,93.8z"/>
<path fill="#222222" d="M200.3,100h12.3c1.2,0,2.3-1,2.3-2.3V61.6c0-10.3,7.5-18.7,17.4-20.3c1.9-0.3,3.2-1.9,3.2-3.7v-9.5 c0-2.3-2-4-4.1-3.7c-3.6,0.4-7.1,1.3-10.4,2.7c-0.9,0.4-1.9,0.8-2.7,1.2c-1.5,0.8-3.3-0.3-3.3-2c0-1.2-1-2.3-2.3-2.3h-12.3 c-1.2,0-2.3,1-2.3,2.3v71.2C198.2,99,199.1,100,200.3,100z"/>
<path fill="#222222" d="M167.3,51.6h-14h-0.2c-13.3,0.1-24,10.9-24,24.2s10.7,24.1,24,24.2c0.1,0,0.1,0,0.2,0H184 c2.1,0,3.7-1.6,3.7-3.7V44.8c0-11.3-9.1-20.5-20.5-20.5h-17.6c-2.1,0-3.7,1.6-3.7,3.7v9.4c0,2.1,1.6,3.7,3.7,3.7h17.6 c2.1,0,3.7,1.6,3.7,3.7v3.1C171,49.9,169.4,51.6,167.3,51.6z M171,79.4c0,2.1-1.6,3.7-3.7,3.7h-13.8c-4,0-7.4-3.2-7.5-7.2 c-0.1-4.1,3.3-7.5,7.4-7.5h14c2.1,0,3.7,1.6,3.7,3.7L171,79.4L171,79.4z"/>
<path fill="#222222" d="M267.2,24.3h-17.6c-2.1,0-3.7,1.6-3.7,3.7v9.4c0,2.1,1.6,3.7,3.7,3.7h17.6c2.1,0,3.7,1.6,3.7,3.7v3.1 c0,2.1-1.6,3.7-3.7,3.7h-14c-0.1,0-0.1,0-0.2,0c-13.3,0.1-24,10.9-24,24.2s10.7,24.1,24,24.2c0.1,0,0.1,0,0.2,0h30.7 c2.1,0,3.7-1.6,3.7-3.7V44.8C287.6,33.5,278.5,24.3,267.2,24.3z M270.9,79.4c0,2.1-1.6,3.7-3.7,3.7h-13.8c-4,0-7.4-3.2-7.5-7.2 c-0.1-4.1,3.3-7.5,7.4-7.5h14c2.1,0,3.7,1.6,3.7,3.7v7.3H270.9z"/>
<path fill="#222222" d="M283.9,110.3H11c-2.1,0-3.7,1.6-3.7,3.7v9.1c0,2.1,1.6,3.7,3.7,3.7h272.8c2.1,0,3.7-1.6,3.7-3.7V114 C287.6,111.9,286,110.3,283.9,110.3z"/>
</svg>